<?xml version="1.0" encoding="utf-8"?>
<!-- Generator: Adobe Illustrator 24.0.1, SVG Export Plug-In . SVG Version: 6.00 Build 0)  -->
<svg version="1.1" id="Layer_1" xmlns="http://www.w3.org/2000/svg" xmlns:xlink="http://www.w3.org/1999/xlink" x="0px" y="0px"
	 viewBox="0 0 24.2 23.48" style="enable-background:new 0 0 24.2 23.48;" xml:space="preserve">
<style type="text/css">
	.st0{fill:#100F0F;}
</style>
<path class="st0" d="M0,23.48v-2.5h6.12l0.33-2.13l-5.42-1.42v-5.34l3.25-0.33c-0.65-1.33-1.2-2.84-0.96-4.8
	C3.6,4.6,4.74,2.72,6.73,1.35C8.02,0.47,9.54,0,11.13,0c1.86,0,3.66,0.65,5.07,1.84c2.62,2.21,3.45,5.36,2.31,8.67l2.97-0.38
	l1.72,4.49c0,0-5.03,3.33-5.81,3.71c0.13,0.8,0.29,1.51,0.46,2.62h6.35v2.53H0z M15.3,20.88c-0.21-1.53-0.54-3.76-0.54-3.76
	l5.4-3.47l-0.27-0.7l-5.66,0.5l-0.16-0.4L14.12,13c1.63-1.48,2.35-2.93,2.41-4.83c0.06-1.95-0.7-3.51-2.24-4.65
	c-0.91-0.67-2-1.03-3.13-1.03c-1.69,0-3.31,0.81-4.33,2.16c-0.87,1.16-1.22,2.5-1.02,4c0.29,2.2,1.74,3.54,3.82,4.87l0.06,0.04
	l-0.14,0.47l-6.03,0.52v0.77l5.75,1.51l-0.59,4.04H15.3z"/>
</svg>
