<svg xmlns="http://www.w3.org/2000/svg" viewBox="0 0 600 600"><g id="D"><path d="M500,25a75.09,75.09,0,0,0-75,75v75h75a75,75,0,0,0,0-150Zm50,75a50,50,0,0,1-50,50H450V100a50,50,0,0,1,50-50h0a50,50,0,0,1,50,50Z"/><path d="M500,425H425v75a75,75,0,1,0,75-75Zm50,75a50,50,0,0,1-50,50h0a50,50,0,0,1-50-50V450h50a50,50,0,0,1,50,50Z"/><path d="M150,475v25a50,50,0,0,1-50,50h0a50,50,0,0,1-50-50h0a50,50,0,0,1,50-50h25V425H100a75,75,0,1,0,75,75V475Z"/><path d="M300,150H150V450H300c82.71,0,150-67.29,150-150S382.71,150,300,150Zm0,250H200V200H300a100,100,0,0,1,0,200Z"/><path d="M125,150H100a50,50,0,0,1-50-50h0a50,50,0,0,1,50-50h0a50,50,0,0,1,50,50v25h25V100a75,75,0,1,0-75,75h25Z"/></g></svg>