<svg xmlns="http://www.w3.org/2000/svg" viewBox="0 0 800 400"><defs><style>.cls-1{stroke:#000;stroke-miterlimit:10;}</style></defs><g id="Web_Design" data-name="Web Design"><path d="M324,61.5A37.54,37.54,0,0,0,286.5,99v37.5H324a37.5,37.5,0,0,0,0-75ZM349,99a25,25,0,0,1-25,25H299V99a25,25,0,0,1,25-25h0a25,25,0,0,1,25,25Z"/><path d="M324,261.5H286.5V299A37.5,37.5,0,1,0,324,261.5ZM349,299a25,25,0,0,1-25,25h0a25,25,0,0,1-25-25V274h25a25,25,0,0,1,25,25Z"/><path d="M149,286.5V299a25,25,0,0,1-25,25h0a25,25,0,0,1-25-25h0a25,25,0,0,1,25-25h12.5V261.5H124A37.5,37.5,0,1,0,161.5,299V286.5Z"/><path d="M224,124H149V274h75a75,75,0,0,0,0-150Zm0,125H174V149h50a50,50,0,0,1,0,100Z"/><path d="M136.5,124H124A25,25,0,0,1,99,99h0a25,25,0,0,1,25-25h0a25,25,0,0,1,25,25v12.5h12.5V99A37.5,37.5,0,1,0,124,136.5h12.5Z"/><path class="cls-1" d="M699,286.5H549a12.5,12.5,0,0,1-8.83-21.34L668.81,136.5H561.52V149h-25V124A12.5,12.5,0,0,1,549,111.5H699a12.5,12.5,0,0,1,8.83,21.34L579.19,261.5H686.48V249h25v25A12.5,12.5,0,0,1,699,286.5Z"/><polygon points="417 257 417 207 367 207 367 192 417 192 417 142 432 142 432 192 482 192 482 207 432 207 432 257 417 257"/></g></svg>